PathFileType	4	(X/Y/Z)	\\Move.snu.ac.kr\motion\Animal\091204_091205_Bird\091205_bird\Project 2\Capture day 2\Session 1\pigeon_015.trc
DataRate	CameraRate	NumFrames	NumMarkers	Units	OrigDataRate	OrigDataStartFrame	OrigNumFrames
240.0	240.0	25	14	mm	240.0	119	2522
Frame#	Time	14MarkersBird:Head			14MarkersBird:C_back			14MarkersBird:Spine			14MarkersBird:L-shoulder			14MarkersBird:L-elbow			14MarkersBird:L-wrist			14MarkersBird:L-hand			14MarkersBird:R-shoulder			14MarkersBird:R-elbow			14MarkersBird:R-Wrist			14MarkersBird:R-hand			14MarkersBird:C_Tail			14MarkersBird:L-Tale			14MarkersBird:R-Tale			
		X1	Y1	Z1	X2	Y2	Z2	X3	Y3	Z3	X4	Y4	Z4	X5	Y5	Z5	X6	Y6	Z6	X7	Y7	Z7	X8	Y8	Z8	X9	Y9	Z9	X10	Y10	Z10	X11	Y11	Z11	X12	Y12	Z12	X13	Y13	Z13	X14	Y14	Z14	

1235	5.142	-366.81625	1410.35852	-591.16858	-308.31369	1411.17957	-611.07153	-259.00763	1399.23706	-631.15552	-328.99567	1403.70886	-577.98224	-297.29239	1392.05078	-567.04456	-339.07321	1386.02209	-552.03625	-358.10995	1365.74597	-551.51013	-346.88849	1401.34570	-622.98157	-336.59265	1393.35767	-650.17303	-372.08060	1385.86426	-629.86884	-394.85370	1355.14514	-619.48523	-163.72462	1320.87170	-656.31775	-192.39687	1346.34119	-562.95288	-245.20959	1339.12805	-731.49084	
1236	5.146	-374.21606	1407.67981	-588.80432	-315.86588	1409.64172	-608.73907	-266.15671	1397.71252	-628.63763	-335.87231	1402.13599	-575.82605	-301.17255	1393.76233	-566.71722	-341.50888	1391.62390	-548.24188	-360.25177	1371.13586	-547.24896	-353.60571	1399.65198	-620.79285	-339.22372	1395.76306	-649.46301	-377.20959	1392.08704	-631.73541	-399.09836	1360.59509	-622.13452	-171.15623	1319.26514	-654.88251	-199.30908	1342.73340	-561.65350	-252.61530	1335.90552	-728.26929	
1237	5.150	-381.67746	1405.01550	-586.47498	-323.58957	1407.68835	-606.41730	-273.38855	1396.02515	-626.07379	-342.86017	1400.22620	-573.67450	-305.56549	1396.36804	-566.83051	-343.31735	1397.75085	-544.07947	-359.89703	1376.00256	-540.48468	-360.32425	1397.77039	-618.59827	-341.71552	1399.07617	-647.79755	-381.95850	1398.35718	-634.59363	-403.02856	1365.94104	-628.80768	-179.00943	1316.81067	-653.18829	-206.47958	1339.32593	-559.99646	-260.41092	1332.84485	-725.14478	
1238	5.154	-389.13208	1402.42126	-584.20178	-331.39288	1405.41736	-604.14111	-280.66904	1394.13379	-623.47363	-349.95554	1398.11096	-571.51813	-310.81094	1399.39233	-567.73206	-344.95142	1404.24084	-540.49377	-357.04602	1380.87231	-532.99963	-366.97028	1395.99207	-616.25317	-344.35345	1402.80701	-644.50171	-386.05725	1404.71436	-637.39709	-405.74670	1371.64063	-638.04236	-187.14299	1313.65332	-651.07507	-213.88380	1336.33704	-557.80402	-268.43021	1330.32471	-722.30054	
1239	5.158	-396.53665	1399.93945	-581.99530	-339.08612	1402.92151	-602.10004	-287.97897	1392.01282	-620.83484	-357.16891	1395.93018	-569.35925	-317.04440	1402.27893	-569.61951	-346.81976	1410.71631	-538.35596	-352.09665	1386.64539	-526.72559	-373.53094	1394.52588	-613.58765	-347.40939	1406.38403	-639.32562	-389.36288	1411.12061	-639.12909	-406.47821	1378.60474	-648.08569	-195.39078	1310.03662	-648.46490	-221.54520	1333.84082	-554.98065	-276.57944	1328.47668	-719.81604	
1240	5.162	-403.88242	1397.58496	-579.85876	-346.69907	1400.38403	-600.14478	-295.27841	1389.65894	-618.15094	-364.51041	1393.76721	-567.22632	-324.17902	1404.70850	-572.44537	-349.33841	1416.73987	-538.17712	-346.21228	1393.98389	-523.22321	-380.06088	1393.32495	-610.52838	-351.06131	1409.22778	-632.48138	-391.92679	1417.25183	-638.98083	-404.85806	1387.65955	-657.15155	-203.62109	1306.15771	-645.41748	-229.47075	1331.81360	-551.54218	-284.82016	1327.20813	-717.66962	
1241	5.167	-411.19568	1395.33594	-577.80048	-354.15717	1398.02014	-598.22760	-302.50861	1387.08276	-615.41870	-371.94046	1391.59912	-565.17175	-331.94577	1406.42883	-575.91669	-352.82367	1422.00952	-539.85236	-341.07520	1402.98840	-523.19257	-386.63339	1392.14014	-607.17639	-355.29117	1411.08154	-624.39288	-394.05475	1422.65283	-636.68469	-401.07721	1399.05957	-663.55029	-211.75975	1302.11682	-642.07178	-237.59676	1330.19116	-547.59833	-293.11853	1326.31604	-715.78436	
1242	5.171	-418.50809	1393.16602	-575.82416	-361.37845	1395.95142	-596.38940	-309.64835	1384.32935	-612.63922	-379.35776	1389.34485	-563.22662	-340.35367	1406.34058	-579.25000	-357.35855	1426.41003	-542.75433	-338.15289	1413.21875	-526.47473	-393.27948	1390.68945	-603.77002	-360.03293	1411.82410	-615.59784	-396.17697	1427.04614	-632.62140	-395.93173	1412.25085	-665.84033	-219.76210	1297.95789	-638.55280	-245.78865	1328.90295	-543.32690	-301.39664	1325.60669	-714.06897	
1243	5.175	-425.81631	1391.07617	-573.89417	-368.37051	1394.11292	-594.60388	-316.69678	1381.43738	-609.83557	-386.64777	1386.97583	-561.34161	-349.62238	1405.23450	-581.39636	-362.83231	1429.95105	-546.08282	-338.25040	1423.86926	-532.45056	-399.97543	1388.80164	-600.59033	-365.74454	1410.49744	-607.36963	-398.67538	1430.45251	-627.52124	-390.61136	1426.01489	-663.26477	-227.56223	1293.74060	-634.94958	-253.89281	1327.85620	-538.94373	-309.51175	1324.97119	-712.44781	
1244	5.179	-433.08401	1389.08118	-571.92719	-375.16824	1392.37646	-592.81677	-323.56570	1378.22485	-607.08142	-393.73853	1384.55957	-559.40063	-359.22040	1403.75696	-581.60852	-369.08536	1432.65283	-549.09930	-341.58310	1433.90930	-540.23975	-406.69846	1386.52332	-597.82367	-372.49158	1408.45410	-600.99274	-401.84528	1433.01733	-622.10956	-386.37729	1438.89880	-656.15320	-235.05295	1289.56519	-631.33673	-261.79919	1326.90210	-534.64343	-317.28552	1324.38184	-710.87213	
1245	5.183	-440.27484	1387.14746	-569.84235	-381.80789	1390.61108	-590.97266	-330.36038	1374.60840	-604.36737	-400.62744	1382.18420	-557.30017	-368.94580	1402.36890	-580.36719	-375.98257	1434.46948	-551.15692	-347.94937	1442.25171	-548.56177	-413.44589	1384.04590	-595.49390	-380.51437	1406.90967	-597.08661	-405.91925	1434.77710	-616.99817	-384.39798	1449.67188	-645.94995	-242.11357	1285.55273	-627.79712	-269.44736	1325.87524	-530.54974	-324.55524	1323.84253	-709.30017	
1246	5.188	-447.35992	1385.18274	-567.63416	-388.32574	1388.68542	-589.01556	-337.11981	1370.47583	-601.67377	-407.36871	1379.84973	-555.03662	-378.35434	1401.11768	-578.03101	-383.33481	1435.28772	-551.66455	-356.77112	1448.14917	-555.65485	-420.20212	1381.50085	-593.51239	-389.41467	1405.60669	-594.82898	-411.05389	1435.58691	-612.79211	-385.57578	1457.65491	-634.90625	-248.66122	1281.82068	-624.40399	-276.80634	1324.68628	-526.72229	-331.23074	1323.33521	-707.67426	
1247	5.192	-454.31860	1383.10095	-565.38458	-394.75800	1386.46851	-586.89032	-343.78790	1365.76721	-599.01373	-414.07715	1377.40955	-552.71692	-386.80038	1399.75684	-574.64648	-390.80542	1434.95264	-550.09955	-367.08871	1451.50745	-559.54596	-426.93106	1378.84656	-591.75317	-398.57486	1404.23853	-593.82800	-417.26758	1435.18201	-610.14850	-390.31400	1462.72803	-625.61084	-254.70616	1278.47693	-621.18744	-283.89142	1323.35107	-523.19159	-337.35159	1322.75562	-705.92621	
1248	5.196	-461.14514	1380.87756	-563.17767	-401.14087	1383.82922	-584.54114	-350.38193	1360.72021	-596.39801	-420.81680	1374.72644	-550.43628	-394.02844	1398.03015	-570.14642	-397.92044	1433.22546	-546.08783	-377.66943	1452.72156	-558.56195	-433.63885	1375.99365	-590.11121	-407.37326	1402.59570	-594.13580	-424.41568	1433.23901	-609.70062	-398.37973	1464.96558	-620.45746	-260.36752	1275.61731	-618.13379	-290.79608	1321.93494	-519.96246	-343.09680	1321.85400	-703.99323	
1249	5.200	-467.84985	1378.54846	-561.02454	-407.51068	1380.63623	-581.91235	-356.95615	1355.68286	-593.83325	-427.53421	1371.84961	-548.18372	-400.35379	1395.73499	-564.45239	-404.22647	1429.77051	-539.52759	-387.28433	1452.05823	-551.83051	-440.39905	1372.92932	-588.53491	-415.50458	1400.34937	-595.74182	-432.27203	1429.37781	-611.85718	-409.02130	1464.13599	-621.00000	-265.83398	1273.30859	-615.20599	-297.68091	1320.45361	-516.99347	-348.72849	1320.24194	-701.83130	
1250	5.204	-474.47211	1376.18726	-558.88251	-413.90356	1376.75879	-578.94843	-363.56650	1351.00867	-591.32599	-434.19028	1368.94507	-545.87976	-406.38947	1392.66992	-557.66321	-409.60986	1424.25464	-530.73627	-395.13480	1449.16492	-539.60510	-447.31833	1369.66711	-586.98761	-423.24454	1397.08679	-598.31982	-440.70535	1423.23950	-616.45093	-421.39627	1459.58459	-627.30981	-271.29974	1271.55090	-612.35754	-304.70746	1318.81335	-514.20697	-354.53351	1317.51001	-699.43231	
1251	5.208	-481.07736	1373.85132	-556.70398	-420.35516	1372.06824	-575.59491	-370.26904	1347.05090	-588.88257	-440.85559	1366.08728	-543.45337	-412.70709	1388.64111	-550.20068	-414.52277	1416.51575	-520.39288	-401.37097	1443.18335	-523.29248	-454.49738	1366.16809	-585.43304	-431.30219	1392.49084	-601.22168	-449.82758	1414.65308	-622.54022	-435.08231	1450.65027	-637.80725	-276.91138	1270.26233	-609.56152	-311.95639	1316.83777	-511.52945	-360.74496	1313.48816	-696.82916	
1252	5.213	-487.73270	1371.55774	-554.44855	-426.89883	1366.53748	-571.82849	-377.11972	1344.16309	-586.50940	-447.63000	1363.19263	-540.86810	-419.65970	1383.58826	-542.74915	-419.87247	1406.57800	-509.29602	-407.21826	1433.35950	-505.02374	-461.99695	1362.38269	-583.83435	-440.30780	1386.50879	-603.67078	-459.96680	1403.70837	-628.67126	-450.18448	1437.11182	-649.83557	-282.75687	1269.30042	-606.83588	-319.38614	1314.38623	-508.92416	-367.43915	1308.49170	-694.07306	
1253	5.217	-494.48752	1369.28259	-552.09796	-433.79446	1361.22607	-567.87463	-384.17374	1342.69299	-584.21271	-454.58990	1360.07678	-538.13776	-427.00946	1377.98047	-536.17499	-426.65829	1394.56262	-498.25620	-414.32541	1419.55859	-486.94327	-469.79483	1358.32544	-582.13220	-450.35931	1379.43018	-604.91968	-471.46552	1390.69946	-633.34552	-466.91647	1419.27844	-660.53094	-288.88745	1268.51294	-604.23676	-326.86057	1311.47900	-506.40897	-374.47797	1303.28308	-691.21338	
1254	5.221	-501.37247	1366.97852	-549.67432	-441.41504	1358.14990	-564.35309	-391.46399	1342.84167	-581.99854	-461.77637	1356.63330	-535.29382	-433.98590	1372.42664	-530.30701	-435.59323	1380.70508	-488.13614	-423.96494	1402.26196	-470.72748	-477.78625	1354.14807	-580.24713	-460.68643	1372.24939	-604.42999	-484.38065	1376.02246	-635.35229	-485.12756	1397.86890	-667.48737	-295.33371	1267.79211	-601.82050	-334.19815	1308.33484	-504.07022	-381.57236	1298.69543	-688.30505	
1255	5.225	-508.40082	1364.60254	-547.22003	-448.96753	1355.80872	-561.42169	-398.88113	1343.72571	-579.88043	-469.19815	1352.92920	-532.38629	-441.17310	1365.82056	-522.98029	-446.91879	1365.50220	-479.87582	-436.74808	1382.23022	-457.61627	-485.84088	1350.11340	-578.11597	-470.77081	1365.67468	-602.84772	-498.26611	1360.16809	-633.89099	-504.12854	1373.91577	-669.08582	-302.09177	1267.12036	-599.61292	-341.23209	1305.26514	-502.02814	-388.42279	1295.23828	-685.41766	
1256	5.229	-515.56952	1362.11316	-544.75598	-456.45758	1353.57288	-558.71710	-406.23880	1343.61230	-577.77057	-476.83029	1349.19165	-529.46558	-449.40796	1358.28357	-516.24042	-460.37079	1349.76843	-474.38065	-452.62033	1360.38489	-448.68927	-493.86261	1346.42883	-575.73730	-482.50336	1357.34314	-601.93805	-512.25067	1343.90552	-628.62341	-522.82910	1348.78809	-664.54089	-309.08936	1266.59277	-597.60712	-347.86627	1302.52747	-500.38089	-394.83878	1293.00281	-682.61389	
1257	5.233	-522.86859	1359.44910	-542.27325	-464.01456	1351.58972	-556.31250	-413.75403	1343.53723	-575.42749	-484.62802	1345.68274	-526.57239	-459.06772	1350.17383	-510.57764	-475.24774	1334.59412	-472.20178	-470.86301	1337.98340	-444.91632	-501.80823	1343.11267	-573.16669	-494.34265	1348.06848	-599.98193	-525.35834	1328.40002	-619.76398	-540.01086	1324.20715	-653.88959	-316.19128	1266.38440	-595.78979	-354.10559	1300.21655	-499.15753	-400.78174	1291.81116	-679.92505	
1258	5.238	-530.30243	1356.53125	-539.74927	-471.70566	1349.82800	-554.24725	-421.48264	1343.39197	-573.08380	-492.55649	1342.53516	-523.74658	-468.59766	1342.39417	-505.87762	-490.61121	1321.23303	-473.23254	-490.20490	1316.80627	-446.76456	-509.70200	1340.06323	-570.47925	-504.93967	1339.69336	-596.27722	-536.84442	1315.02148	-608.17377	-554.65192	1302.10632	-638.02997	-323.25620	1266.66589	-594.16901	-360.04874	1298.24890	-498.29517	-406.37537	1291.35742	-677.34070	
1259	5.242	-537.89709	1353.28760	-537.16095	-479.60501	1348.20557	-552.36127	-429.46249	1342.86914	-570.76733	-500.64249	1339.71448	-521.01764	-477.64188	1335.26221	-502.39258	-505.52655	1310.89661	-476.60065	-509.16504	1299.06702	-453.65536	-517.63708	1337.18872	-567.74323	-514.55145	1332.28540	-592.39270	-546.42365	1304.93860	-595.30756	-566.26575	1284.32239	-618.72394	-330.20215	1267.49866	-592.76239	-365.85294	1296.44031	-497.66061	-411.89249	1291.24231	-674.81396	
